# xmcd
#
# Track frame offsets:
# 150
# 17620
# 38442
# 55465
# 79845
# 89222
# 112775
# 137097
# 164325
# 182795
# 200812
# 218242
# 233082
# 248432
# 272667
#
# Disc length: 3850 seconds
#
#
# Revision: 7
# Processed by: cddbd v1.5.1PL2 Copyright (c) Steve Scherf et al.
# Submitted via: FreeRIP 2.945 
#
DISCID=cb0f080f
DTITLE=Muddy Waters - King of the Electric Blues
DYEAR=1981
DGENRE=Blues
TTITLE0=I'm A King Bee
TTITLE1=Champagne and Reefer
TTITLE2=Mean Old Frisco Blues
TTITLE3=Sad Sad Day
TTITLE4=No Escape From The Blues
TTITLE5=She's Nineteen Years Old
TTITLE6=Nine Below Zero
TTITLE7=Howing Wolf
TTITLE8=Baby Please Don't Go
TTITLE9=I'm Your Hoochie Coochie Man
TTITLE10=Rock Me
TTITLE11=Good Morning Little School Girl
TTITLE12=I'm Ready
TTITLE13=Mannish Boy
TTITLE14=The Blues Had A Baby And They Named It Rock And Roll
EXTD=n/a
EXTT0=
EXTT1=
EXTT2=
EXTT3=
EXTT4=
EXTT5=
EXTT6=
EXTT7=
EXTT8=
EXTT9=
EXTT10=
EXTT11=
EXTT12=
EXTT13=
EXTT14=
PLAYORDER=
